<svg width="60.000000" height="60.000000" viewBox="0 0 60 60" fill="none" xmlns="http://www.w3.org/2000/svg" xmlns:xlink="http://www.w3.org/1999/xlink">
	<desc>
			Created with Pixso.
	</desc>
	<defs>
		<clipPath id="clip1_59">
			<rect id="settings-sliders" rx="0.000000" width="23.000000" height="23.000000" transform="translate(18.500000 18.500000)" fill="white" fill-opacity="0"/>
		</clipPath>
	</defs>
	<rect id="Rectangle 67" rx="20.000000" width="60.000000" height="60.000000" fill="#EF2A39" fill-opacity="1.000000"/>
	<g clip-path="url(#clip1_59)">
		<path id="Vector" d="M28.7 20.62C28.41 20.02 27.97 19.52 27.41 19.16C26.85 18.81 26.21 18.62 25.55 18.62C24.88 18.62 24.24 18.81 23.68 19.16C23.12 19.52 22.68 20.02 22.4 20.62L19.5 20.62C19.1 20.62 18.72 20.78 18.43 21.06C18.15 21.34 18 21.72 18 22.12L18 22.12C18 22.52 18.15 22.9 18.43 23.18C18.72 23.46 19.1 23.62 19.5 23.62L22.39 23.62C22.67 24.22 23.12 24.72 23.67 25.08C24.23 25.43 24.88 25.62 25.54 25.62C26.2 25.62 26.85 25.43 27.41 25.08C27.96 24.72 28.41 24.22 28.69 23.62L40.5 23.62C40.89 23.62 41.27 23.46 41.56 23.18C41.84 22.9 42 22.52 42 22.12C42 21.72 41.84 21.34 41.56 21.06C41.27 20.78 40.89 20.62 40.5 20.62L28.7 20.62Z" fill="#FFFFFF" fill-opacity="1.000000" fill-rule="nonzero"/>
		<path id="Vector" d="M34.45 26.49C33.79 26.5 33.14 26.68 32.58 27.04C32.03 27.39 31.58 27.9 31.3 28.49L19.5 28.49C19.1 28.49 18.72 28.65 18.43 28.93C18.15 29.22 18 29.6 18 29.99L18 29.99C18 30.39 18.15 30.77 18.43 31.06C18.72 31.34 19.1 31.49 19.5 31.49L31.3 31.49C31.58 32.09 32.02 32.6 32.58 32.95C33.14 33.31 33.78 33.49 34.45 33.49C35.11 33.49 35.75 33.31 36.31 32.95C36.87 32.6 37.31 32.09 37.59 31.49L40.5 31.49C40.89 31.49 41.27 31.34 41.56 31.06C41.84 30.77 42 30.39 42 29.99C42 29.6 41.84 29.22 41.56 28.93C41.27 28.65 40.89 28.49 40.5 28.49L37.6 28.49C37.32 27.9 36.87 27.39 36.31 27.04C35.76 26.68 35.11 26.5 34.45 26.49Z" fill="#FFFFFF" fill-opacity="1.000000" fill-rule="nonzero"/>
		<path id="Vector" d="M25.54 34.37C24.88 34.37 24.23 34.56 23.68 34.91C23.12 35.27 22.67 35.77 22.39 36.37L19.5 36.37C19.1 36.37 18.72 36.53 18.43 36.81C18.15 37.09 18 37.47 18 37.87L18 37.87C18 38.27 18.15 38.65 18.43 38.93C18.72 39.21 19.1 39.37 19.5 39.37L22.39 39.37C22.67 39.97 23.12 40.47 23.67 40.83C24.23 41.18 24.88 41.37 25.54 41.37C26.2 41.37 26.85 41.18 27.41 40.83C27.96 40.47 28.41 39.97 28.69 39.37L40.5 39.37C40.89 39.37 41.27 39.21 41.56 38.93C41.84 38.65 42 38.27 42 37.87C42 37.47 41.84 37.09 41.56 36.81C41.27 36.53 40.89 36.37 40.5 36.37L28.7 36.37C28.41 35.77 27.97 35.27 27.41 34.91C26.85 34.56 26.2 34.37 25.54 34.37Z" fill="#FFFFFF" fill-opacity="1.000000" fill-rule="nonzero"/>
	</g>
</svg>
